# xmcd
#
# Track frame offsets:
#	150
#	13070
#	31547
#	48372
#	62417
#	77407
#	98220
#	111907
#	129067
#	146957
#	155695
#	169255
#	180620
#	191547
#	203557
#	212465
#	231135
#	240790
#
# Disc length: 3441 seconds
#
# Revision: 0
# Processed by: cddbd v1.5.2PL0 Copyright (c) Steve Scherf et al.
# Submitted via: dBpowerAMP V4.0
#
DISCID=dd0d6f12
DTITLE=Dave Tucker - Tickled Ragtime and Novelties
DYEAR=1900
DGENRE=Ragtime
TTITLE0=Maple Leaf Rag
TTITLE1=Weeping Willow
TTITLE2=Ragtime Dance
TTITLE3=The Entertainer
TTITLE4=Swipesy
TTITLE5=Chrysanthemum
TTITLE6=The Cascades
TTITLE7=Magnetic Rag
TTITLE8=American Beauty
TTITLE9=Nickel in the Slot
TTITLE10=Kitten on the Keys
TTITLE11=Stumbling
TTITLE12=Coaxing the Piano
TTITLE13=Meandering
TTITLE14=Basin Street Blues
TTITLE15=Mood Indigo
TTITLE16=Mr. Jelly Lord
TTITLE17=Malaguena
EXTD=from TurboRagtime
EXTT0=
EXTT1=
EXTT2=
EXTT3=
EXTT4=
EXTT5=
EXTT6=
EXTT7=
EXTT8=
EXTT9=
EXTT10=
EXTT11=
EXTT12=
EXTT13=
EXTT14=
EXTT15=
EXTT16=
EXTT17=
PLAYORDER=
